{
.appVersion = "961";
copyright = "Copyright 2017 Google Inc. All Rights Reserved.";
customParameters = (
{
name = description;
value = "Designed by Monotype design team.";
},
{
name = license;
value = "This Font Software is licensed under the SIL Open Font License, Version 1.1. This Font Software is distributed on an \"AS IS\" BASIS, WITHOUT WARRANTIES OR CONDITIONS OF ANY KIND, either express or implied. See the SIL Open Font License for the specific language, permissions and limitations governing your use of this Font Software.";
},
{
name = licenseURL;
value = "http://scripts.sil.org/OFL";
},
{
name = vendorID;
value = GOOG;
},
{
name = unicodeRanges;
value = (
0,
1,
57,
107
);
},
{
name = glyphOrder;
value = (
.notdef,
NULL,
CR,
space,
u10800,
u10801,
u10802,
u10803,
u10804,
u10805,
u10808,
u1080A,
u1080B,
u1080C,
u1080D,
u1080E,
u1080F,
u10810,
u10811,
u10812,
u10813,
u10814,
u10815,
u10816,
u10817,
u10818,
u10819,
u1081A,
u1081B,
u1081C,
u1081D,
u1081E,
u1081F,
u10820,
u10821,
u10822,
u10823,
u10824,
u10825,
u10826,
u10827,
u10828,
u10829,
u1082A,
u1082B,
u1082C,
u1082D,
u1082E,
u1082F,
u10830,
u10831,
u10832,
u10833,
u10834,
u10835,
u10837,
u10838,
u1083C,
u1083F,
uni00A0
);
},
{
name = trademark;
value = "Noto is a trademark of Google Inc.";
},
{
name = "Has WWS Names";
value = 1;
},
{
name = versionString;
value = "Version 1.900";
},
{
name = fsType;
value = (
);
}
);
date = "2017-01-10 19:43:38 +0000";
designer = "Monotype Design Team";
designerURL = "http://www.monotype.com/studio";
disablesAutomaticAlignment = 1;
disablesNiceNames = 1;
familyName = "Noto Sans Cypriot";
fontMaster = (
{
alignmentZones = (
"{736, 15}",
"{536, 15}",
"{0, -15}",
"{-79, -15}"
);
ascender = 736;
capHeight = 736;
customParameters = (
{
name = typoAscender;
value = 1069;
},
{
name = typoDescender;
value = -293;
},
{
name = typoLineGap;
value = 0;
},
{
name = winAscent;
value = 1069;
},
{
name = winDescent;
value = 293;
},
{
name = hheaAscender;
value = 1069;
},
{

glyphs = (
{
glyphname = .notdef;
lastChange = "2017-01-10 21:28:56 +0000";
layers = (
{
layerId = "A5022ABA-0638-4546-9A6C-64101FA4B09F";
paths = (
{
closed = 1;
nodes = (
"505 0 LINE",
"505 714 LINE",
"94 714 LINE",
"94 0 LINE"
);
},
{
closed = 1;
nodes = (
"454 663 LINE",
"454 51 LINE",
"145 51 LINE",
"145 663 LINE"
);
}
);
width = 600;
}
);
note = .notdef;
},
{
glyphname = u10800;
lastChange = "2017-01-10 21:28:56 +0000";
layers = (
{
layerId = "A5022ABA-0638-4546-9A6C-64101FA4B09F";
paths = (
{
closed = 1;
nodes = (
"437 213 LINE SMOOTH",
"437 251 OFFCURVE",
"432 306 OFFCURVE",
"426 322 CURVE",
"430 324 LINE",
"446 301 OFFCURVE",
"487 263 OFFCURVE",
"514 241 CURVE",
"680 105 LINE",
"725 167 LINE",
"549 310 LINE SMOOTH",
"523 331 OFFCURVE",
"476 354 OFFCURVE",
"437 365 CURVE",
"437 369 LINE",
"476 377 OFFCURVE",
"513 394 OFFCURVE",
"549 423 CURVE SMOOTH",
"728 567 LINE",
"680 627 LINE",
"514 493 LINE SMOOTH",
"491 474 OFFCURVE",
"446 430 OFFCURVE",
"430 409 CURVE",
"426 411 LINE",
"432 428 OFFCURVE",
"437 481 OFFCURVE",
"437 520 CURVE SMOOTH",
"437 714 LINE",
"359 714 LINE",
"359 520 LINE SMOOTH",
"359 475 OFFCURVE",
"363 428 OFFCURVE",
"369 411 CURVE",
"365 409 LINE",
"352 427 OFFCURVE",
"309 471 OFFCURVE",
"282 493 CURVE SMOOTH",
"115 627 LINE",
"67 567 LINE",
"247 423 LINE SMOOTH",
"283 395 OFFCURVE",
"320 377 OFFCURVE",
"359 369 CURVE",
"359 365 LINE",
"317 353 OFFCURVE",
"272 331 OFFCURVE",
"247 310 CURVE SMOOTH",
"70 167 LINE",
"115 105 LINE",
"282 241 LINE",
"310 263 OFFCURVE",
"352 304 OFFCURVE",
"365 324 CURVE",
"369 322 LINE",
"362 303 OFFCURVE",
"359 266 OFFCURVE",
"359 213 CURVE SMOOTH",
"359 0 LINE",
"437 0 LINE"
);
}
);
width = 796;
}
);
note = u10800;
unicode = 10800;
},
{
glyphname = u10801;
lastChange = "2017-01-10 21:28:56 +0000";
layers = (
{
layerId = "A5022ABA-0638-4546-9A6C-64101FA4B09F";
paths = (
{
closed = 1;
nodes = (
"482 392 OFFCURVE",
"568 438 OFFCURVE",
"601 465 CURVE SMOOTH",
"728 567 LINE",
"680 627 LINE",
"514 493 LINE SMOOTH",
"491 474 OFFCURVE",
"446 430 OFFCURVE",
"430 409 CURVE",
"426 411 LINE",
"432 428 OFFCURVE",
"437 481 OFFCURVE",
"437 520 CURVE SMOOTH",
"437 714 LINE",
"359 714 LINE",
"359 520 LINE SMOOTH",
"359 475 OFFCURVE",
"363 428 OFFCURVE",
"369 411 CURVE",
"365 409 LINE",
"352 427 OFFCURVE",
"309 471 OFFCURVE",
"282 493 CURVE SMOOTH",
"115 627 LINE",
"67 567 LINE",
"247 423 LINE SMOOTH",
"283 395 OFFCURVE",
"320 377 OFFCURVE",
"359 369 CURVE",
"359 365 LINE",
"317 353 OFFCURVE",
"272 331 OFFCURVE",
"247 310 CURVE SMOOTH",
"70 167 LINE",
"115 105 LINE",
"282 241 LINE",
"310 263 OFFCURVE",
"352 304 OFFCURVE",
"365 324 CURVE",
"369 322 LINE",
"362 303 OFFCURVE",
"359 266 OFFCURVE",
"359 213 CURVE SMOOTH",
"359 0 LINE",
"437 0 LINE",
"437 213 LINE SMOOTH",
"437 251 OFFCURVE",
"432 306 OFFCURVE",
"426 322 CURVE",
"430 324 LINE",
"446 301 OFFCURVE",
"487 263 OFFCURVE",
"514 241 CURVE",
"680 105 LINE",
"725 167 LINE",
"601 268 LINE SMOOTH",
"566 297 OFFCURVE",
"483 341 OFFCURVE",
"450 349 CURVE",
"450 353 LINE",
"506 340 OFFCURVE",
"566 334 OFFCURVE",
"629 334 CURVE SMOOTH",
"716 334 LINE",
"716 403 LINE",
"629 403 LINE SMOOTH",
"564 403 OFFCURVE",
"505 396 OFFCURVE",
"451 381 CURVE",
"451 386 LINE"
);
}
);
width = 796;
}
);
note = u10801;
unicode = 10801;
},
{
glyphname = u10802;
lastChange = "2017-01-10 21:28:56 +0000";
layers = (
{
layerId = "A5022ABA-0638-4546-9A6C-64101FA4B09F";
paths = (
{
closed = 1;
nodes = (
"288 254 LINE",
"72 45 LINE",
"126 -10 LINE",
"349 209 LINE",
"574 -10 LINE",
"628 44 LINE",
"411 254 LINE",
"629 470 LINE",
"577 523 LINE",
"445 395 LINE SMOOTH",
"421 372 OFFCURVE",
"399 343 OFFCURVE",
"380 310 CURVE",
"376 310 LINE",
"384 364 OFFCURVE",
"388 427 OFFCURVE",
"388 498 CURVE SMOOTH",
"388 714 LINE",
"310 714 LINE",
"310 498 LINE SMOOTH",
"310 430 OFFCURVE",
"314 367 OFFCURVE",
"322 310 CURVE",
"318 310 LINE",
"303 338 OFFCURVE",
"281 366 OFFCURVE",
"252 395 CURVE SMOOTH",
"120 523 LINE",
"67 471 LINE"
);
}
);
width = 697;
}
);
note = u10802;
unicode = 10802;
},
{
glyphname = u10803;
lastChange = "2017-01-10 21:28:56 +0000";
layers = (
{
layerId = "A5022ABA-0638-4546-9A6C-64101FA4B09F";
paths = (
{
closed = 1;
nodes = (
"674 672 LINE",
"614 725 LINE",
"374 450 LINE",
"140 726 LINE",
"79 673 LINE",
"345 369 LINE",
"409 369 LINE"
);
},
{
closed = 1;
nodes = (
"140 447 LINE",
"79 394 LINE",
"363 69 LINE",
"140 69 LINE",
"140 0 LINE",
"613 0 LINE",
"613 69 LINE",
"392 69 LINE",
"674 393 LINE",
"614 446 LINE",
"374 170 LINE"
);
}
);
width = 753;
}
);
note = u10803;
unicode = 10803;
},
{
glyphname = u10804;
lastChange = "2017-01-10 21:28:56 +0000";
layers = (
{
layerId = "A5022ABA-0638-4546-9A6C-64101FA4B09F";
paths = (
{
closed = 1;
nodes = (
"460 461 LINE",
"624 619 LINE",
"761 482 LINE",
"815 534 LINE",
"632 714 LINE",
"608 714 LINE",
"424 531 LINE",
"241 714 LINE",
"216 714 LINE",
"34 534 LINE",
"88 482 LINE",
"226 620 LINE",
"382 464 LINE",
"382 0 LINE",
"460 0 LINE"
);
}
);
width = 849;
}
);
note = u10804;
unicode = 10804;
},
{
glyphname = u10805;
lastChange = "2017-01-10 21:28:56 +0000";
layers = (
{
layerId = "A5022ABA-0638-4546-9A6C-64101FA4B09F";
paths = (
{
closed = 1;
nodes = (
"440 145 OFFCURVE",
"512 298 OFFCURVE",
"512 451 CURVE SMOOTH",
"512 625 OFFCURVE",
"430 727 OFFCURVE",
"290 727 CURVE SMOOTH",
"141 727 OFFCURVE",
"67 615 OFFCURVE",
"67 451 CURVE SMOOTH",
"67 297 OFFCURVE",
"139 144 OFFCURVE",
"270 0 CURVE",
"309 0 LINE"
);
},
{
closed = 1;
nodes = (
"145 582 OFFCURVE",
"196 655 OFFCURVE",
"290 655 CURVE SMOOTH",
"384 655 OFFCURVE",
"435 584 OFFCURVE",
"435 451 CURVE SMOOTH",
"435 319 OFFCURVE",
"383 189 OFFCURVE",
"290 82 CURVE",
"198 188 OFFCURVE",
"145 317 OFFCURVE",
"145 451 CURVE SMOOTH"
);
}
);
width = 579;
}
);
note = u10805;
unicode = 10805;
},
{
glyphname = u10808;
lastChange = "2017-01-10 21:28:56 +0000";
layers = (
{
layerId = "A5022ABA-0638-4546-9A6C-64101FA4B09F";
paths = (
{
closed = 1;
nodes = (
"739 247 OFFCURVE",
"760 269 OFFCURVE",
"790 304 CURVE SMOOTH",
"953 495 LINE",
"897 544 LINE",
"709 318 LINE",
"522 544 LINE",
"482 544 LINE",
"286 310 LINE",
"93 544 LINE",
"34 495 LINE",
"251 226 LINE",
"307 226 LINE",
"500 449 LINE",
"618 303 LINE SMOOTH",
"642 273 OFFCURVE",
"663 251 OFFCURVE",
"680 238 CURVE",
"678 233 LINE",
"647 236 OFFCURVE",
"613 238 OFFCURVE",
"574 238 CURVE SMOOTH",
"510 238 LINE",
"510 168 LINE",
"890 168 LINE",
"890 238 LINE",
"838 238 LINE SMOOTH",
"792 238 OFFCURVE",
"756 236 OFFCURVE",
"729 233 CURVE",
"726 238 LINE"
);
}
);
width = 986;
}
);
note = u10808;
unicode = 10808;
},
{
glyphname = u1080A;
lastChange = "2017-01-10 21:28:56 +0000";
layers = (
{
layerId = "A5022ABA-0638-4546-9A6C-64101FA4B09F";
paths = (
{
closed = 1;
nodes = (
"387 69 LINE",
"387 440 LINE SMOOTH",
"387 485 OFFCURVE",
"385 531 OFFCURVE",
"381 578 CURVE SMOOTH",
"378 617 LINE",
"382 617 LINE",
"394 598 OFFCURVE",
"415 573 OFFCURVE",
"445 543 CURVE SMOOTH",
"576 414 LINE",
"629 466 LINE",
"370 724 LINE",
"325 724 LINE",
"67 467 LINE",
"119 414 LINE",
"252 543 LINE SMOOTH",
"279 569 OFFCURVE",
"299 593 OFFCURVE",
"312 617 CURVE",
"316 617 LINE",
"312 556 OFFCURVE",
"309 497 OFFCURVE",
"309 440 CURVE SMOOTH",
"309 69 LINE",
"119 69 LINE",
"119 0 LINE",
"576 0 LINE",
"576 69 LINE"
);
}
);
width = 697;
}
);
note = u1080A;
unicode = 1080A;
},
{
glyphname = u1080B;
lastChange = "2017-01-10 21:28:56 +0000";
layers = (
{
layerId = "A5022ABA-0638-4546-9A6C-64101FA4B09F";
paths = (
{
closed = 1;
nodes = (
"146 -10 LINE",
"295 187 LINE",
"456 64 LINE",
"503 126 LINE",
"341 247 LINE",
"497 453 LINE SMOOTH",
"520 484 OFFCURVE",
"532 512 OFFCURVE",
"532 540 CURVE SMOOTH",
"532 576 OFFCURVE",
"511 611 OFFCURVE",
"469 644 CURVE SMOOTH",
"360 728 LINE",
"312 666 LINE",
"419 585 LINE SMOOTH",
"441 568 OFFCURVE",
"452 551 OFFCURVE",
"452 533 CURVE SMOOTH",
"452 520 OFFCURVE",
"446 506 OFFCURVE",
"435 492 CURVE SMOOTH",
"397 442 LINE",
"233 570 LINE",
"187 509 LINE",
"350 384 LINE",
"282 293 LINE",
"114 420 LINE",
"67 358 LINE",
"237 233 LINE",
"87 40 LINE"
);
}
);
width = 622;
}
);
note = u1080B;
unicode = 1080B;
},
{
glyphname = u1080C;
lastChange = "2017-01-10 21:28:56 +0000";
layers = (
{
layerId = "A5022ABA-0638-4546-9A6C-64101FA4B09F";
paths = (
{
closed = 1;
nodes = (
"341 69 LINE",
"341 358 LINE",
"503 513 LINE",
"605 412 LINE",
"659 464 LINE",
"511 608 LINE",
"487 608 LINE",
"303 425 LINE",
"121 607 LINE",
"67 552 LINE",
"263 355 LINE",
"263 69 LINE",
"158 69 LINE",
"158 0 LINE",
"444 0 LINE",
"444 69 LINE"
);
},
{
closed = 1;
nodes = (
"158 714 LINE",
"158 645 LINE",
"444 645 LINE",
"444 714 LINE"
);
}
);
width = 693;
}
);
note = u1080C;
unicode = 1080C;
},
{
glyphname = u1080D;
lastChange = "2017-01-10 21:28:56 +0000";
layers = (
{
layerId = "A5022ABA-0638-4546-9A6C-64101FA4B09F";
paths = (
{
closed = 1;
nodes = (
"475 644 LINE",
"567 -3 LINE",
"644 3 LINE",
"542 714 LINE",
"181 714 LINE",
"79 3 LINE",
"155 -3 LINE",
"247 644 LINE"
);
}
);
width = 722;
}
);
note = u1080D;
unicode = 1080D;
},
{
glyphname = u1080E;
lastChange = "2017-01-10 21:28:56 +0000";
layers = (
{
layerId = "A5022ABA-0638-4546-9A6C-64101FA4B09F";
paths = (
{
closed = 1;
nodes = (
"502 677 LINE",
"455 724 LINE",
"349 624 LINE",
"242 723 LINE",
"194 677 LINE",
"327 548 LINE",
"370 548 LINE"
);
},
{
closed = 1;
nodes = (
"409 387 LINE",
"615 585 LINE",
"561 641 LINE",
"348 431 LINE",
"136 640 LINE",
"82 585 LINE",
"286 387 LINE",
"67 170 LINE",
"119 117 LINE",
"252 246 LINE SMOOTH",
"277 270 OFFCURVE",
"298 298 OFFCURVE",
"316 330 CURVE",
"320 330 LINE",
"313 277 OFFCURVE",
"309 215 OFFCURVE",
"309 143 CURVE SMOOTH",
"309 0 LINE",
"387 0 LINE",
"387 143 LINE SMOOTH",
"387 203 OFFCURVE",
"383 265 OFFCURVE",
"374 330 CURVE",
"378 330 LINE",
"414 270 OFFCURVE",
"463 227 OFFCURVE",
"576 117 CURVE",
"629 169 LINE"
);
}
);
width = 697;
}
);
note = u1080E;
unicode = 1080E;
},
{
glyphname = u1080F;
lastChange = "2017-01-10 21:28:56 +0000";
layers = (
{
layerId = "A5022ABA-0638-4546-9A6C-64101FA4B09F";
paths = (
{
closed = 1;
nodes = (
"370 254 OFFCURVE",
"378 261 OFFCURVE",
"409 291 CURVE SMOOTH",
"569 448 LINE",
"697 324 LINE",
"751 376 LINE",
"577 543 LINE",
"553 543 LINE",
"320 310 LINE",
"88 543 LINE",
"34 488 LINE",
"221 299 LINE SMOOTH",
"257 263 OFFCURVE",
"269 252 OFFCURVE",
"292 238 CURVE",
"290 233 LINE",
"259 236 OFFCURVE",
"226 238 OFFCURVE",
"191 238 CURVE SMOOTH",
"126 238 LINE",
"126 168 LINE",
"507 168 LINE",
"507 238 LINE",
"455 238 LINE SMOOTH",
"413 238 OFFCURVE",
"378 236 OFFCURVE",
"351 233 CURVE",
"348 238 LINE"
);
}
);
width = 784;
}
);
note = u1080F;
unicode = 1080F;
},
{
glyphname = u10810;
lastChange = "2017-01-10 21:28:56 +0000";
layers = (
{
layerId = "A5022ABA-0638-4546-9A6C-64101FA4B09F";
paths = (
{
closed = 1;
nodes = (
"490 266 OFFCURVE",
"436 340 OFFCURVE",
"352 373 CURVE",
"433 416 OFFCURVE",
"479 479 OFFCURVE",
"479 548 CURVE SMOOTH",
"479 653 OFFCURVE",
"391 722 OFFCURVE",
"282 722 CURVE SMOOTH",
"172 722 OFFCURVE",
"78 652 OFFCURVE",
"78 548 CURVE SMOOTH",
"78 472 OFFCURVE",
"108 423 OFFCURVE",
"205 363 CURVE",
"117 329 OFFCURVE",
"67 264 OFFCURVE",
"67 185 CURVE SMOOTH",
"67 66 OFFCURVE",
"158 -10 OFFCURVE",
"279 -10 CURVE SMOOTH",
"397 -10 OFFCURVE",
"490 62 OFFCURVE",
"490 185 CURVE SMOOTH"
);
},
{
closed = 1;
nodes = (
"409 106 OFFCURVE",
"356 61 OFFCURVE",
"277 61 CURVE SMOOTH",
"200 61 OFFCURVE",
"148 107 OFFCURVE",
"148 181 CURVE SMOOTH",
"148 257 OFFCURVE",
"191 312 OFFCURVE",
"278 344 CURVE",
"365 310 OFFCURVE",
"409 255 OFFCURVE",
"409 181 CURVE SMOOTH"
);
},
{
closed = 1;
nodes = (
"399 485 OFFCURVE",
"358 434 OFFCURVE",
"278 393 CURVE",
"200 432 OFFCURVE",
"158 481 OFFCURVE",
"158 548 CURVE SMOOTH",
"158 608 OFFCURVE",
"212 652 OFFCURVE",
"279 652 CURVE SMOOTH",
"347 652 OFFCURVE",
"399 608 OFFCURVE",
"399 547 CURVE SMOOTH"
);
}
);
width = 557;
}
);
note = u10810;
unicode = 10810;
},
{
glyphname = u10811;
lastChange = "2017-01-10 21:28:56 +0000";
layers = (
{
layerId = "A5022ABA-0638-4546-9A6C-64101FA4B09F";
paths = (
{
closed = 1;
nodes = (
"45 69 LINE",
"45 0 LINE",
"554 0 LINE",
"554 69 LINE"
);
},
{
closed = 1;
nodes = (
"45 238 LINE",
"45 168 LINE",
"554 168 LINE",
"554 238 LINE",
"140 238 LINE",
"465 683 LINE",
"404 727 LINE"
);
}
);
width = 621;
}
);
note = u10811;
unicode = 10811;
},
{
glyphname = u10812;
lastChange = "2017-01-10 21:28:56 +0000";
layers = (
{
layerId = "A5022ABA-0638-4546-9A6C-64101FA4B09F";
paths = (
{
closed = 1;
nodes = (
"325 428 LINE",
"325 714 LINE",
"248 714 LINE",
"248 428 LINE",
"45 428 LINE",
"45 359 LINE",
"248 359 LINE",
"248 0 LINE",
"325 0 LINE",
"325 359 LINE",
"529 359 LINE",
"529 428 LINE"
);
}
);
width = 574;
}
);
note = u10812;
unicode = 10812;
},
{
glyphname = u10813;
lastChange = "2017-01-10 21:28:56 +0000";
layers = (
{
layerId = "A5022ABA-0638-4546-9A6C-64101FA4B09F";
paths = (
{
closed = 1;
nodes = (
"566 657 OFFCURVE",
"652 538 OFFCURVE",
"664 300 CURVE SMOOTH",
"679 -2 LINE",
"757 2 LINE",
"743 300 LINE SMOOTH",
"730 577 OFFCURVE",
"617 728 OFFCURVE",
"423 728 CURVE SMOOTH",
"399 728 LINE SMOOTH",
"204 728 OFFCURVE",
"90 577 OFFCURVE",
"79 303 CURVE SMOOTH",
"67 2 LINE",
"145 -2 LINE",
"156 303 LINE SMOOTH",
"165 539 OFFCURVE",
"248 657 OFFCURVE",
"406 657 CURVE SMOOTH"
);
},
{
closed = 1;
nodes = (
"246 139 OFFCURVE",
"268 -6 OFFCURVE",
"401 -6 CURVE SMOOTH",
"411 -6 LINE SMOOTH",
"540 -6 OFFCURVE",
"566 126 OFFCURVE",
"566 303 CURVE",
"489 303 LINE",
"489 175 OFFCURVE",
"484 64 OFFCURVE",
"404 64 CURVE SMOOTH",
"327 64 OFFCURVE",
"323 165 OFFCURVE",
"323 303 CURVE",
"246 303 LINE"
);
}
);
width = 824;
}
);
note = u10813;
unicode = 10813;
},
{
glyphname = u10814;
lastChange = "2017-01-10 21:28:56 +0000";
layers = (
{
layerId = "A5022ABA-0638-4546-9A6C-64101FA4B09F";
paths = (
{
closed = 1;
nodes = (
"359 387 LINE",
"178 656 LINE",
"114 612 LINE",
"282 362 LINE",
"56 43 LINE",
"115 -5 LINE",
"359 337 LINE"
);
},
{
closed = 1;
nodes = (
"776 43 LINE",
"551 362 LINE",
"714 611 LINE",
"651 656 LINE",
"473 387 LINE",
"473 337 LINE",
"717 -5 LINE"
);
},
{
closed = 1;
nodes = (
"592 681 LINE",
"527 724 LINE",
"419 557 LINE",
"308 723 LINE",
"248 682 LINE",
"396 460 LINE",
"444 460 LINE"
);
}
);
width = 832;
}
);
note = u10814;
unicode = 10814;
},
{
glyphname = u10815;
lastChange = "2017-01-10 21:28:56 +0000";
layers = (
{
layerId = "A5022ABA-0638-4546-9A6C-64101FA4B09F";
paths = (
{
closed = 1;
nodes = (
"114 680 LINE",
"367 390 LINE",
"56 36 LINE",
"119 -10 LINE",
"421 331 LINE",
"723 -10 LINE",
"786 36 LINE",
"475 390 LINE",
"728 680 LINE",
"665 726 LINE",
"421 448 LINE",
"177 726 LINE"
);
},
{
closed = 1;
nodes = (
"379 227 LINE",
"379 198 LINE SMOOTH",
"379 47 OFFCURVE",
"408 0 OFFCURVE",
"549 0 CURVE SMOOTH",
"567 0 LINE",
"567 71 LINE",
"549 71 LINE SMOOTH",
"469 71 OFFCURVE",
"457 101 OFFCURVE",
"457 201 CURVE SMOOTH",
"457 227 LINE"
);
}
);
width = 843;
}
);
note = u10815;
unicode = 10815;
},
{
glyphname = u10816;
lastChange = "2017-01-10 21:28:56 +0000";
layers = (
{
layerId = "A5022ABA-0638-4546-9A6C-64101FA4B09F";
paths = (
{
closed = 1;
nodes = (
"515 254 OFFCURVE",
"523 261 OFFCURVE",
"554 291 CURVE SMOOTH",
"715 448 LINE",
"843 324 LINE",
"897 376 LINE",
"723 543 LINE",
"699 543 LINE",
"466 310 LINE",
"234 543 LINE",
"209 543 LINE",
"34 376 LINE",
"86 325 LINE",
"217 448 LINE",
"366 299 LINE SMOOTH",
"393 272 OFFCURVE",
"415 252 OFFCURVE",
"437 238 CURVE",
"435 233 LINE",
"404 236 OFFCURVE",
"371 238 OFFCURVE",
"336 238 CURVE SMOOTH",
"271 238 LINE",
"271 168 LINE",
"652 168 LINE",
"652 238 LINE",
"600 238 LINE SMOOTH",
"557 238 OFFCURVE",
"522 236 OFFCURVE",
"496 233 CURVE",
"493 238 LINE"
);
}
);
width = 930;
}
);
note = u10816;
unicode = 10816;
},
{
glyphname = u10817;
lastChange = "2017-01-10 21:28:56 +0000";
layers = (
{
layerId = "A5022ABA-0638-4546-9A6C-64101FA4B09F";
paths = (
{
closed = 1;
nodes = (
"647 144 OFFCURVE",
"786 229 OFFCURVE",
"786 377 CURVE SMOOTH",
"786 543 OFFCURVE",
"612 609 OFFCURVE",
"421 609 CURVE SMOOTH",
"235 609 OFFCURVE",
"56 544 OFFCURVE",
"56 377 CURVE SMOOTH",
"56 229 OFFCURVE",
"195 144 OFFCURVE",
"421 144 CURVE SMOOTH"
);
},
{
closed = 1;
nodes = (
"709 285 OFFCURVE",
"617 224 OFFCURVE",
"459 212 CURVE",
"459 540 LINE",
"607 533 OFFCURVE",
"709 471 OFFCURVE",
"709 377 CURVE SMOOTH"
);
},
{
closed = 1;
nodes = (
"134 471 OFFCURVE",
"231 533 OFFCURVE",
"381 540 CURVE",
"381 212 LINE",
"232 221 OFFCURVE",
"134 285 OFFCURVE",
"134 377 CURVE SMOOTH"
);
}
);
width = 843;
}
);
note = u10817;
unicode = 10817;
},
{
glyphname = u10818;
lastChange = "2017-01-10 21:28:56 +0000";
layers = (
{
layerId = "A5022ABA-0638-4546-9A6C-64101FA4B09F";
paths = (
{
closed = 1;
nodes = (
"475 376 OFFCURVE",
"494 391 OFFCURVE",
"516 411 CURVE SMOOTH",
"538 431 OFFCURVE",
"606 499 OFFCURVE",
"723 613 CURVE",
"669 668 LINE",
"407 415 LINE",
"145 668 LINE",
"91 613 LINE",
"258 449 LINE SMOOTH",
"300 407 OFFCURVE",
"333 380 OFFCURVE",
"357 367 CURVE",
"357 363 LINE",
"328 344 OFFCURVE",
"293 314 OFFCURVE",
"253 275 CURVE SMOOTH",
"90 115 LINE",
"145 62 LINE",
"407 315 LINE",
"669 62 LINE",
"725 115 LINE",
"559 278 LINE SMOOTH",
"516 321 OFFCURVE",
"481 349 OFFCURVE",
"457 363 CURVE",
"457 367 LINE"
);
},
{
closed = 1;
nodes = (
"646 466 LINE",
"646 262 LINE",
"723 262 LINE",
"723 466 LINE"
);
},
{
closed = 1;
nodes = (
"91 466 LINE",
"91 262 LINE",
"168 262 LINE",
"168 466 LINE"
);
}
);
width = 815;
}
);
note = u10818;
unicode = 10818;
},
{
glyphname = u10819;
lastChange = "2017-01-10 21:28:56 +0000";
layers = (
{
layerId = "A5022ABA-0638-4546-9A6C-64101FA4B09F";
paths = (
{
closed = 1;
nodes = (
"67 518 LINE",
"67 449 LINE",
"267 449 LINE",
"267 0 LINE",
"345 0 LINE",
"345 449 LINE",
"550 449 LINE",
"550 518 LINE"
);
},
{
closed = 1;
nodes = (
"67 714 LINE",
"67 645 LINE",
"550 645 LINE",
"550 714 LINE"
);
}
);
width = 617;
}
);
note = u10819;
unicode = 10819;
},
{
glyphname = u1081A;
lastChange = "2017-01-10 21:28:56 +0000";
layers = (
{
layerId = "A5022ABA-0638-4546-9A6C-64101FA4B09F";
paths = (
{
closed = 1;
nodes = (
"143 557 LINE",
"67 557 LINE",
"67 163 LINE",
"143 163 LINE"
);
},
{
closed = 1;
nodes = (
"547 557 LINE",
"471 557 LINE",
"471 163 LINE",
"547 163 LINE"
);
},
{
closed = 1;
nodes = (
"192 415 OFFCURVE",
"221 377 OFFCURVE",
"278 353 CURVE SMOOTH",
"302 343 LINE SMOOTH",
"335 329 OFFCURVE",
"349 312 OFFCURVE",
"349 288 CURVE SMOOTH",
"349 276 OFFCURVE",
"346 264 OFFCURVE",
"340 251 CURVE SMOOTH",
"235 16 LINE",
"307 -10 LINE",
"414 232 LINE SMOOTH",
"425 256 OFFCURVE",
"429 277 OFFCURVE",
"429 297 CURVE SMOOTH",
"429 347 OFFCURVE",
"400 384 OFFCURVE",
"343 409 CURVE SMOOTH",
"319 419 LINE SMOOTH",
"284 433 OFFCURVE",
"273 450 OFFCURVE",
"273 474 CURVE SMOOTH",
"273 488 OFFCURVE",
"277 500 OFFCURVE",
"282 511 CURVE SMOOTH",
"367 708 LINE",
"295 734 LINE",
"207 530 LINE SMOOTH",
"197 508 OFFCURVE",
"192 486 OFFCURVE",
"192 465 CURVE SMOOTH"
);
}
);
width = 614;
}
);
note = u1081A;
unicode = 1081A;
},
{
glyphname = u1081B;
lastChange = "2017-01-10 21:28:56 +0000";
layers = (
{
layerId = "A5022ABA-0638-4546-9A6C-64101FA4B09F";
paths = (
{
closed = 1;
nodes = (
"231 69 LINE",
"524 453 LINE SMOOTH",
"549 485 OFFCURVE",
"560 515 OFFCURVE",
"560 540 CURVE SMOOTH",
"560 576 OFFCURVE",
"539 611 OFFCURVE",
"497 644 CURVE SMOOTH",
"388 728 LINE",
"340 666 LINE",
"447 585 LINE SMOOTH",
"468 569 OFFCURVE",
"479 552 OFFCURVE",
"479 534 CURVE SMOOTH",
"479 521 OFFCURVE",
"473 507 OFFCURVE",
"462 493 CURVE SMOOTH",
"405 421 LINE",
"245 545 LINE",
"197 484 LINE",
"357 359 LINE",
"256 227 LINE",
"92 352 LINE",
"45 291 LINE",
"209 167 LINE",
"133 69 LINE",
"46 69 LINE",
"46 0 LINE",
"618 0 LINE",
"618 69 LINE"
);
}
);
width = 652;
}
);
note = u1081B;
unicode = 1081B;
},
{
glyphname = u1081C;
lastChange = "2017-01-10 21:28:56 +0000";
layers = (
{
layerId = "A5022ABA-0638-4546-9A6C-64101FA4B09F";
paths = (
{
closed = 1;
nodes = (
"341 520 OFFCURVE",
"346 542 OFFCURVE",
"346 565 CURVE SMOOTH",
"346 614 OFFCURVE",
"316 651 OFFCURVE",
"257 677 CURVE SMOOTH",
"132 731 LINE",
"100 661 LINE",
"220 609 LINE SMOOTH",
"250 596 OFFCURVE",
"265 578 OFFCURVE",
"265 553 CURVE SMOOTH",
"265 543 OFFCURVE",
"262 532 OFFCURVE",
"258 522 CURVE SMOOTH",
"67 84 LINE",
"138 53 LINE",
"330 498 LINE"
);
},
{
closed = 1;
nodes = (
"474 552 OFFCURVE",
"429 518 OFFCURVE",
"406 465 CURVE SMOOTH",
"215 27 LINE",
"286 -4 LINE",
"473 429 LINE SMOOTH",
"485 456 OFFCURVE",
"502 469 OFFCURVE",
"527 469 CURVE SMOOTH",
"538 469 OFFCURVE",
"550 466 OFFCURVE",
"563 461 CURVE SMOOTH",
"683 411 LINE",
"716 481 LINE",
"591 537 LINE SMOOTH",
"567 548 OFFCURVE",
"544 552 OFFCURVE",
"524 552 CURVE SMOOTH"
);
}
);
width = 761;
}
);
note = u1081C;
unicode = 1081C;
},
{
glyphname = u1081D;
lastChange = "2017-01-10 21:28:56 +0000";
layers = (
{
layerId = "A5022ABA-0638-4546-9A6C-64101FA4B09F";
paths = (
{
closed = 1;
nodes = (
"67 675 LINE",
"340 359 LINE",
"72 48 LINE",
"131 -3 LINE",
"411 320 LINE",
"411 398 LINE",
"126 726 LINE"
);
},
{
closed = 1;
nodes = (
"538 714 LINE",
"460 714 LINE",
"460 396 LINE",
"538 396 LINE"
);
},
{
closed = 1;
nodes = (
"538 318 LINE",
"460 318 LINE",
"460 0 LINE",
"538 0 LINE"
);
}
);
width = 651;
}
);
note = u1081D;
unicode = 1081D;
},
{
glyphname = u1081E;
lastChange = "2017-01-10 21:28:56 +0000";
layers = (
{
layerId = "A5022ABA-0638-4546-9A6C-64101FA4B09F";
paths = (
{
closed = 1;
nodes = (
"370 326 LINE",
"370 461 LINE",
"574 461 LINE",
"574 530 LINE",
"370 530 LINE",
"370 714 LINE",
"293 714 LINE",
"293 530 LINE",
"90 530 LINE",
"90 461 LINE",
"293 461 LINE",
"293 326 LINE",
"90 326 LINE",
"90 257 LINE",
"293 257 LINE",
"293 0 LINE",
"370 0 LINE",
"370 257 LINE",
"574 257 LINE",
"574 326 LINE"
);
}
);
width = 664;
}
);
note = u1081E;
unicode = 1081E;
},
{
glyphname = u1081F;
lastChange = "2017-01-10 21:28:56 +0000";
layers = (
{
layerId = "A5022ABA-0638-4546-9A6C-64101FA4B09F";
paths = (
{
closed = 1;
nodes = (
"73 415 OFFCURVE",
"102 377 OFFCURVE",
"160 353 CURVE SMOOTH",
"184 343 LINE SMOOTH",
"214 330 OFFCURVE",
"231 313 OFFCURVE",
"231 288 CURVE SMOOTH",
"231 277 OFFCURVE",
"227 265 OFFCURVE",
"221 251 CURVE SMOOTH",
"116 16 LINE",
"189 -10 LINE",
"296 232 LINE SMOOTH",
"306 254 OFFCURVE",
"311 276 OFFCURVE",
"311 297 CURVE SMOOTH",
"311 346 OFFCURVE",
"282 383 OFFCURVE",
"224 409 CURVE SMOOTH",
"201 419 LINE SMOOTH",
"166 435 OFFCURVE",
"155 450 OFFCURVE",
"155 474 CURVE SMOOTH",
"155 487 OFFCURVE",
"158 500 OFFCURVE",
"163 511 CURVE SMOOTH",
"249 708 LINE",
"176 734 LINE",
"89 530 LINE SMOOTH",
"78 505 OFFCURVE",
"73 484 OFFCURVE",
"73 465 CURVE SMOOTH"
);
}
);
width = 385;
}
);
note = u1081F;
unicode = 1081F;
},
{
glyphname = u10820;
lastChange = "2017-01-10 21:28:56 +0000";
layers = (
{
layerId = "A5022ABA-0638-4546-9A6C-64101FA4B09F";
paths = (
{
closed = 1;
nodes = (
"140 377 LINE",
"79 324 LINE",
"363 0 LINE",
"392 0 LINE",
"674 323 LINE",
"614 376 LINE",
"374 101 LINE"
);
},
{
closed = 1;
nodes = (
"674 672 LINE",
"614 725 LINE",
"374 450 LINE",
"140 726 LINE",
"79 673 LINE",
"345 369 LINE",
"409 369 LINE"
);
}
);
width = 753;
}
);
note = u10820;
unicode = 10820;
},
{
glyphname = u10821;
lastChange = "2017-01-10 21:28:56 +0000";
layers = (
{
layerId = "A5022ABA-0638-4546-9A6C-64101FA4B09F";
paths = (
{
closed = 1;
nodes = (
"197 -10 LINE",
"360 349 LINE",
"296 380 OFFCURVE",
"251 405 OFFCURVE",
"228 421 CURVE SMOOTH",
"178 456 OFFCURVE",
"161 482 OFFCURVE",
"161 534 CURVE SMOOTH",
"161 595 OFFCURVE",
"213 653 OFFCURVE",
"273 653 CURVE SMOOTH",
"324 653 OFFCURVE",
"384 625 OFFCURVE",
"445 571 CURVE",
"489 633 LINE",
"415 700 OFFCURVE",
"357 724 OFFCURVE",
"274 724 CURVE SMOOTH",
"239 724 OFFCURVE",
"207 715 OFFCURVE",
"177 698 CURVE SMOOTH",
"117 663 OFFCURVE",
"79 598 OFFCURVE",
"79 532 CURVE SMOOTH",
"79 437 OFFCURVE",
"123 379 OFFCURVE",
"256 313 CURVE",
"124 21 LINE"
);
}
);
width = 522;
}
);
note = u10821;
unicode = 10821;
},
{
glyphname = u10822;
lastChange = "2017-01-10 21:28:56 +0000";
layers = (
{
layerId = "A5022ABA-0638-4546-9A6C-64101FA4B09F";
paths = (
{
closed = 1;
nodes = (
"379 469 LINE",
"379 426 LINE SMOOTH",
"379 374 OFFCURVE",
"382 319 OFFCURVE",
"387 264 CURVE",
"382 262 LINE",
"373 279 OFFCURVE",
"353 299 OFFCURVE",
"322 321 CURVE SMOOTH",
"136 452 LINE",
"248 556 LINE",
"196 614 LINE",
"45 472 LINE",
"45 425 LINE",
"289 255 LINE SMOOTH",
"318 235 OFFCURVE",
"350 217 OFFCURVE",
"385 202 CURVE",
"382 197 LINE",
"366 200 OFFCURVE",
"332 202 OFFCURVE",
"278 202 CURVE SMOOTH",
"177 202 LINE",
"177 130 LINE",
"663 130 LINE",
"663 202 LINE",
"597 202 LINE SMOOTH",
"518 202 OFFCURVE",
"471 200 OFFCURVE",
"457 197 CURVE",
"454 202 LINE",
"486 215 OFFCURVE",
"518 232 OFFCURVE",
"551 255 CURVE SMOOTH",
"794 425 LINE",
"794 472 LINE",
"643 614 LINE",
"590 556 LINE",
"703 451 LINE",
"516 321 LINE SMOOTH",
"484 299 OFFCURVE",
"463 280 OFFCURVE",
"453 262 CURVE",
"449 264 LINE",
"455 316 OFFCURVE",
"457 370 OFFCURVE",
"457 426 CURVE SMOOTH",
"457 469 LINE"
);
}
);
width = 838;
}
);
note = u10822;
unicode = 10822;
},
{
glyphname = u10823;
lastChange = "2017-01-10 21:28:56 +0000";
layers = (
{
layerId = "A5022ABA-0638-4546-9A6C-64101FA4B09F";
paths = (
{
closed = 1;
nodes = (
"643 69 LINE",
"427 69 LINE",
"520 194 OFFCURVE",
"566 322 OFFCURVE",
"566 451 CURVE SMOOTH",
"566 625 OFFCURVE",
"484 727 OFFCURVE",
"344 727 CURVE SMOOTH",
"193 727 OFFCURVE",
"121 611 OFFCURVE",
"121 451 CURVE SMOOTH",
"121 324 OFFCURVE",
"167 192 OFFCURVE",
"259 69 CURVE",
"45 69 LINE",
"45 0 LINE",
"643 0 LINE"
);
},
{
closed = 1;
nodes = (
"198 583 OFFCURVE",
"249 655 OFFCURVE",
"344 655 CURVE SMOOTH",
"440 655 OFFCURVE",
"490 583 OFFCURVE",
"490 451 CURVE SMOOTH",
"490 318 OFFCURVE",
"438 181 OFFCURVE",
"344 71 CURVE",
"249 182 OFFCURVE",
"198 319 OFFCURVE",
"198 451 CURVE SMOOTH"
);
}
);
width = 687;
}
);
note = u10823;
unicode = 10823;
},
{
glyphname = u10824;
lastChange = "2017-01-10 21:28:56 +0000";
layers = (
{
layerId = "A5022ABA-0638-4546-9A6C-64101FA4B09F";
paths = (
{
closed = 1;
nodes = (
"329 0 LINE",
"329 372 LINE",
"252 372 LINE",
"252 0 LINE"
);
},
{
closed = 1;
nodes = (
"735 353 LINE",
"410 724 LINE",
"381 724 LINE",
"56 353 LINE",
"117 300 LINE",
"393 623 LINE",
"675 300 LINE"
);
},
{
closed = 1;
nodes = (
"540 0 LINE",
"540 372 LINE",
"462 372 LINE",
"462 0 LINE"
);
}
);
width = 792;
}
);
note = u10824;
unicode = 10824;
},
{
glyphname = u10825;
lastChange = "2017-01-10 21:28:56 +0000";
layers = (
{
layerId = "A5022ABA-0638-4546-9A6C-64101FA4B09F";
paths = (
{
closed = 1;
nodes = (
"652 483 OFFCURVE",
"664 512 OFFCURVE",
"664 540 CURVE SMOOTH",
"664 576 OFFCURVE",
"643 611 OFFCURVE",
"601 644 CURVE SMOOTH",
"492 728 LINE",
"443 668 LINE",
"550 588 LINE SMOOTH",
"571 572 OFFCURVE",
"582 555 OFFCURVE",
"582 535 CURVE SMOOTH",
"582 522 OFFCURVE",
"576 508 OFFCURVE",
"565 494 CURVE SMOOTH",
"457 355 LINE",
"293 483 LINE",
"247 422 LINE",
"412 294 LINE",
"259 98 LINE",
"92 225 LINE",
"45 163 LINE",
"274 -6 LINE",
"628 453 LINE SMOOTH"
);
}
);
width = 698;
}
);
note = u10825;
unicode = 10825;
},
{
glyphname = u10826;
lastChange = "2017-01-10 21:28:56 +0000";
layers = (
{
layerId = "A5022ABA-0638-4546-9A6C-64101FA4B09F";
paths = (
{
closed = 1;
nodes = (
"166 32 OFFCURVE",
"231 88 OFFCURVE",
"297 159 CURVE",
"364 91 OFFCURVE",
"433 34 OFFCURVE",
"504 -11 CURVE",
"547 52 LINE",
"479 95 OFFCURVE",
"413 149 OFFCURVE",
"347 215 CURVE",
"445 334 OFFCURVE",
"494 438 OFFCURVE",
"494 527 CURVE SMOOTH",
"494 653 OFFCURVE",
"414 734 OFFCURVE",
"292 734 CURVE SMOOTH",
"169 734 OFFCURVE",
"90 651 OFFCURVE",
"90 527 CURVE SMOOTH",
"90 438 OFFCURVE",
"146 327 OFFCURVE",
"249 210 CURVE",
"193 154 OFFCURVE",
"129 101 OFFCURVE",
"56 52 CURVE",
"101 -11 LINE"
);
},
{
closed = 1;
nodes = (
"165 611 OFFCURVE",
"212 658 OFFCURVE",
"292 658 CURVE SMOOTH",
"371 658 OFFCURVE",
"418 610 OFFCURVE",
"418 527 CURVE SMOOTH",
"418 445 OFFCURVE",
"378 357 OFFCURVE",
"300 265 CURVE",
"210 367 OFFCURVE",
"165 454 OFFCURVE",
"165 527 CURVE SMOOTH"
);
}
);
width = 603;
}
);
note = u10826;
unicode = 10826;
},
{
glyphname = u10827;
lastChange = "2017-01-10 21:28:56 +0000";
layers = (
{
layerId = "A5022ABA-0638-4546-9A6C-64101FA4B09F";
paths = (
{
closed = 1;
nodes = (
"426 219 LINE",
"361 175 LINE",
"530 -79 LINE",
"597 -37 LINE"
);
},
{
closed = 1;
nodes = (
"566 505 OFFCURVE",
"635 621 OFFCURVE",
"748 664 CURVE",
"716 725 LINE",
"571 674 OFFCURVE",
"487 522 OFFCURVE",
"487 361 CURVE SMOOTH",
"487 203 OFFCURVE",
"574 47 OFFCURVE",
"716 -3 CURVE",
"748 58 LINE",
"635 101 OFFCURVE",
"566 216 OFFCURVE",
"566 361 CURVE SMOOTH"
);
},
{
closed = 1;
nodes = (
"249 217 OFFCURVE",
"180 102 OFFCURVE",
"67 58 CURVE",
"99 -3 LINE",
"240 47 OFFCURVE",
"328 198 OFFCURVE",
"328 361 CURVE SMOOTH",
"328 522 OFFCURVE",
"244 672 OFFCURVE",
"99 725 CURVE",
"67 664 LINE",
"180 621 OFFCURVE",
"249 506 OFFCURVE",
"249 361 CURVE SMOOTH"
);
}
);
width = 815;
}
);
note = u10827;
unicode = 10827;
},
{
glyphname = u10828;
lastChange = "2017-01-10 21:28:56 +0000";
layers = (
{
layerId = "A5022ABA-0638-4546-9A6C-64101FA4B09F";
paths = (
{
closed = 1;
nodes = (
"527 715 LINE",
"392 285 LINE SMOOTH",
"369 211 OFFCURVE",
"344 118 OFFCURVE",
"336 62 CURVE",
"331 62 LINE",
"326 113 OFFCURVE",
"301 208 OFFCURVE",
"275 288 CURVE SMOOTH",
"136 715 LINE",
"56 691 LINE",
"275 0 LINE",
"386 0 LINE",
"603 688 LINE"
);
}
);
width = 659;
}
);
note = u10828;
unicode = 10828;
},
{
glyphname = u10829;
lastChange = "2017-01-10 21:28:56 +0000";
layers = (
{
layerId = "A5022ABA-0638-4546-9A6C-64101FA4B09F";
paths = (
{
closed = 1;
nodes = (
"516 714 LINE",
"516 518 LINE",
"395 518 LINE",
"395 714 LINE",
"317 714 LINE",
"317 518 LINE",
"191 518 LINE",
"191 714 LINE",
"113 714 LINE",
"113 0 LINE",
"191 0 LINE",
"191 449 LINE",
"594 449 LINE",
"594 714 LINE"
);
}
);
width = 661;
}
);
note = u10829;
unicode = 10829;
},
{
glyphname = u1082A;
lastChange = "2017-01-10 21:28:56 +0000";
layers = (
{
layerId = "A5022ABA-0638-4546-9A6C-64101FA4B09F";
paths = (
{
closed = 1;
nodes = (
"355 464 LINE",
"355 395 LINE SMOOTH",
"355 339 OFFCURVE",
"361 294 OFFCURVE",
"373 261 CURVE SMOOTH",
"396 195 OFFCURVE",
"436 168 OFFCURVE",
"543 168 CURVE SMOOTH",
"624 168 LINE",
"624 241 LINE",
"543 241 LINE SMOOTH",
"459 241 OFFCURVE",
"432 282 OFFCURVE",
"432 397 CURVE SMOOTH",
"432 464 LINE"
);
},
{
closed = 1;
nodes = (
"154 69 LINE",
"154 0 LINE",
"624 0 LINE",
"624 69 LINE"
);
},
{
closed = 1;
nodes = (
"735 353 LINE",
"410 724 LINE",
"381 724 LINE",
"56 353 LINE",
"117 300 LINE",
"393 623 LINE",
"675 300 LINE"
);
}
);
width = 803;
}
);
note = u1082A;
unicode = 1082A;
},
{
glyphname = u1082B;
lastChange = "2017-01-10 21:28:56 +0000";
layers = (
{
layerId = "A5022ABA-0638-4546-9A6C-64101FA4B09F";
paths = (
{
closed = 1;
nodes = (
"140 105 LINE",
"613 105 LINE",
"613 171 LINE",
"501 171 LINE SMOOTH",
"457 171 OFFCURVE",
"422 169 OFFCURVE",
"397 165 CURVE",
"396 168 LINE",
"421 183 OFFCURVE",
"448 207 OFFCURVE",
"478 241 CURVE SMOOTH",
"674 464 LINE",
"619 518 LINE",
"374 237 LINE",
"136 515 LINE",
"79 465 LINE",
"274 241 LINE SMOOTH",
"309 200 OFFCURVE",
"336 176 OFFCURVE",
"354 168 CURVE",
"353 165 LINE",
"333 169 OFFCURVE",
"299 171 OFFCURVE",
"251 171 CURVE SMOOTH",
"140 171 LINE"
);
},
{
closed = 1;
nodes = (
"140 0 LINE",
"613 0 LINE",
"613 66 LINE",
"140 66 LINE"
);
},
{
closed = 1;
nodes = (
"670 675 LINE",
"614 725 LINE",
"374 450 LINE",
"140 726 LINE",
"81 675 LINE",
"345 374 LINE",
"409 374 LINE"
);
}
);
width = 753;
}
);
note = u1082B;
unicode = 1082B;
},
{
glyphname = u1082C;
lastChange = "2017-01-10 21:28:56 +0000";
layers = (
{
layerId = "A5022ABA-0638-4546-9A6C-64101FA4B09F";
paths = (
{
closed = 1;
nodes = (
"586 206 LINE SMOOTH",
"602 253 OFFCURVE",
"616 309 OFFCURVE",
"618 329 CURVE",
"622 329 LINE",
"624 310 OFFCURVE",
"642 238 OFFCURVE",
"653 207 CURVE SMOOTH",
"728 -4 LINE",
"810 6 LINE",
"665 402 LINE",
"668 407 LINE",
"682 404 OFFCURVE",
"722 402 OFFCURVE",
"786 402 CURVE SMOOTH",
"853 402 LINE",
"853 471 LINE",
"660 471 LINE",
"660 714 LINE",
"582 714 LINE",
"582 471 LINE",
"391 471 LINE",
"391 402 LINE",
"471 402 LINE SMOOTH",
"525 402 OFFCURVE",
"560 404 OFFCURVE",
"575 407 CURVE",
"577 402 LINE",
"432 6 LINE",
"512 -4 LINE"
);
},
{
closed = 1;
nodes = (
"271 215 OFFCURVE",
"201 101 OFFCURVE",
"90 58 CURVE",
"121 -3 LINE",
"265 50 OFFCURVE",
"351 201 OFFCURVE",
"351 361 CURVE SMOOTH",
"351 522 OFFCURVE",
"266 672 OFFCURVE",
"121 725 CURVE",
"90 664 LINE",
"201 621 OFFCURVE",
"271 508 OFFCURVE",
"271 361 CURVE SMOOTH"
);
}
);
width = 909;
}
);
note = u1082C;
unicode = 1082C;
},
{
glyphname = u1082D;
lastChange = "2017-01-10 21:28:56 +0000";
layers = (
{
layerId = "A5022ABA-0638-4546-9A6C-64101FA4B09F";
paths = (
{
closed = 1;
nodes = (
"191 428 LINE",
"191 714 LINE",
"113 714 LINE",
"113 0 LINE",
"191 0 LINE",
"191 359 LINE",
"494 359 LINE",
"494 428 LINE"
);
}
);
width = 539;
}
);
note = u1082D;
unicode = 1082D;
},
{
glyphname = u1082E;
lastChange = "2017-01-10 21:28:56 +0000";
layers = (
{
layerId = "A5022ABA-0638-4546-9A6C-64101FA4B09F";
paths = (
{
closed = 1;
nodes = (
"337 69 LINE",
"119 69 LINE",
"119 0 LINE",
"576 0 LINE",
"576 69 LINE",
"360 69 LINE",
"629 339 LINE",
"576 391 LINE",
"445 262 LINE SMOOTH",
"424 241 OFFCURVE",
"403 212 OFFCURVE",
"382 177 CURVE",
"378 177 LINE",
"384 239 OFFCURVE",
"387 302 OFFCURVE",
"387 365 CURVE SMOOTH",
"387 714 LINE",
"309 714 LINE",
"309 365 LINE SMOOTH",
"309 301 OFFCURVE",
"312 238 OFFCURVE",
"316 177 CURVE",
"312 177 LINE",
"293 213 OFFCURVE",
"273 242 OFFCURVE",
"252 262 CURVE SMOOTH",
"119 391 LINE",
"67 338 LINE"
);
}
);
width = 697;
}
);
note = u1082E;
unicode = 1082E;
},
{
glyphname = u1082F;
lastChange = "2017-01-10 21:28:56 +0000";
layers = (
{
layerId = "A5022ABA-0638-4546-9A6C-64101FA4B09F";
paths = (
{
closed = 1;
nodes = (
"252 543 LINE SMOOTH",
"279 569 OFFCURVE",
"299 593 OFFCURVE",
"312 617 CURVE",
"316 617 LINE",
"312 556 OFFCURVE",
"309 497 OFFCURVE",
"309 440 CURVE SMOOTH",
"309 0 LINE",
"387 0 LINE",
"387 440 LINE SMOOTH",
"387 485 OFFCURVE",
"385 531 OFFCURVE",
"381 578 CURVE SMOOTH",
"378 617 LINE",
"382 617 LINE",
"394 598 OFFCURVE",
"415 573 OFFCURVE",
"445 543 CURVE SMOOTH",
"576 414 LINE",
"629 466 LINE",
"370 724 LINE",
"325 724 LINE",
"67 467 LINE",
"119 414 LINE"
);
}
);
width = 697;
}
);
note = u1082F;
unicode = 1082F;
},
{
glyphname = u10830;
lastChange = "2017-01-10 21:28:56 +0000";
layers = (
{
layerId = "A5022ABA-0638-4546-9A6C-64101FA4B09F";
paths = (
{
closed = 1;
nodes = (
"294 477 LINE",
"294 645 LINE",
"552 645 LINE",
"552 714 LINE",
"67 714 LINE",
"67 645 LINE",
"216 645 LINE",
"216 0 LINE",
"294 0 LINE",
"294 408 LINE",
"501 408 LINE",
"501 477 LINE"
);
}
);
width = 619;
}
);
note = u10830;
unicode = 10830;
},
{
glyphname = u10831;
lastChange = "2017-01-10 21:28:56 +0000";
layers = (
{
layerId = "A5022ABA-0638-4546-9A6C-64101FA4B09F";
paths = (
{
closed = 1;
nodes = (
"594 645 LINE",
"594 714 LINE",
"79 714 LINE",
"79 645 LINE",
"226 645 LINE",
"133 3 LINE",
"211 -3 LINE",
"270 408 LINE",
"594 408 LINE",
"594 477 LINE",
"280 477 LINE",
"305 645 LINE"
);
},
{
closed = 1;
nodes = (
"594 318 LINE",
"516 318 LINE",
"516 0 LINE",
"594 0 LINE"
);
},
{
closed = 1;
nodes = (
"451 318 LINE",
"373 318 LINE",
"373 71 LINE",
"451 71 LINE"
);
}
);
width = 695;
}
);
note = u10831;
unicode = 10831;
},
{
glyphname = u10832;
lastChange = "2017-01-10 21:28:56 +0000";
layers = (
{
layerId = "A5022ABA-0638-4546-9A6C-64101FA4B09F";
paths = (
{
closed = 1;
nodes = (
"359 387 LINE",
"125 731 LINE",
"61 687 LINE",
"282 362 LINE",
"56 43 LINE",
"115 -5 LINE",
"359 337 LINE"
);
},
{
closed = 1;
nodes = (
"776 43 LINE",
"551 362 LINE",
"771 687 LINE",
"708 736 LINE",
"473 387 LINE",
"473 337 LINE",
"717 -5 LINE"
);
},
{
closed = 1;
nodes = (
"248 41 LINE",
"312 -2 LINE",
"420 165 LINE",
"531 -1 LINE",
"592 40 LINE",
"444 262 LINE",
"396 262 LINE"
);
}
);
width = 832;
}
);
note = u10832;
unicode = 10832;
},
{
glyphname = u10833;
lastChange = "2017-01-10 21:28:56 +0000";
layers = (
{
layerId = "A5022ABA-0638-4546-9A6C-64101FA4B09F";
paths = (
{
closed = 1;
nodes = (
"79 714 LINE",
"79 645 LINE",
"278 645 LINE",
"278 69 LINE",
"79 69 LINE",
"79 0 LINE",
"561 0 LINE",
"561 69 LINE",
"356 69 LINE",
"356 645 LINE",
"561 645 LINE",
"561 714 LINE"
);
}
);
width = 640;
}
);
note = u10833;
unicode = 10833;
},
{
glyphname = u10834;
lastChange = "2017-01-10 21:28:56 +0000";
layers = (
{
layerId = "A5022ABA-0638-4546-9A6C-64101FA4B09F";
paths = (
{
closed = 1;
nodes = (
"458 714 LINE",
"380 714 LINE",
"380 498 LINE",
"458 498 LINE"
);
},
{
closed = 1;
nodes = (
"359 387 LINE",
"178 656 LINE",
"114 612 LINE",
"282 362 LINE",
"56 43 LINE",
"115 -5 LINE",
"359 337 LINE"
);
},
{
closed = 1;
nodes = (
"776 43 LINE",
"551 362 LINE",
"714 607 LINE",
"651 656 LINE",
"473 387 LINE",
"473 337 LINE",
"717 -5 LINE"
);
}
);
width = 832;
}
);
note = u10834;
unicode = 10834;
},
{
glyphname = u10835;
lastChange = "2017-01-10 21:28:56 +0000";
layers = (
{
layerId = "A5022ABA-0638-4546-9A6C-64101FA4B09F";
paths = (
{
closed = 1;
nodes = (
"377 302 OFFCURVE",
"371 233 OFFCURVE",
"357 190 CURVE SMOOTH",
"330 104 OFFCURVE",
"276 72 OFFCURVE",
"150 72 CURVE SMOOTH",
"119 72 LINE",
"119 0 LINE",
"150 0 LINE SMOOTH",
"391 0 OFFCURVE",
"454 122 OFFCURVE",
"454 395 CURVE SMOOTH",
"454 464 LINE",
"377 464 LINE",
"377 397 LINE SMOOTH"
);
},
{
closed = 1;
nodes = (
"747 353 LINE",
"421 724 LINE",
"393 724 LINE",
"67 353 LINE",
"129 300 LINE",
"404 623 LINE",
"686 300 LINE"
);
}
);
width = 792;
}
);
note = u10835;
unicode = 10835;
},
{
glyphname = u10837;
lastChange = "2017-01-10 21:28:56 +0000";
layers = (
{
layerId = "A5022ABA-0638-4546-9A6C-64101FA4B09F";
paths = (
{
closed = 1;
nodes = (
"487 507 OFFCURVE",
"557 621 OFFCURVE",
"668 664 CURVE",
"636 725 LINE",
"495 674 OFFCURVE",
"407 524 OFFCURVE",
"407 361 CURVE SMOOTH",
"407 203 OFFCURVE",
"494 47 OFFCURVE",
"636 -3 CURVE",
"668 58 LINE",
"557 102 OFFCURVE",
"487 215 OFFCURVE",
"487 361 CURVE SMOOTH"
);
},
{
closed = 1;
nodes = (
"249 217 OFFCURVE",
"180 102 OFFCURVE",
"67 58 CURVE",
"99 -3 LINE",
"240 47 OFFCURVE",
"328 198 OFFCURVE",
"328 361 CURVE SMOOTH",
"328 522 OFFCURVE",
"244 672 OFFCURVE",
"99 725 CURVE",
"67 664 LINE",
"180 621 OFFCURVE",
"249 506 OFFCURVE",
"249 361 CURVE SMOOTH"
);
}
);
width = 735;
}
);
note = u10837;
unicode = 10837;
},
{
glyphname = u10838;
lastChange = "2017-01-10 21:28:56 +0000";
layers = (
{
layerId = "A5022ABA-0638-4546-9A6C-64101FA4B09F";
paths = (
{
closed = 1;
nodes = (
"475 359 LINE",
"475 0 LINE",
"553 0 LINE",
"553 714 LINE",
"475 714 LINE",
"475 428 LINE",
"274 428 LINE",
"274 359 LINE"
);
},
{
closed = 1;
nodes = (
"147 507 OFFCURVE",
"217 621 OFFCURVE",
"328 664 CURVE",
"297 725 LINE",
"155 674 OFFCURVE",
"67 525 OFFCURVE",
"67 361 CURVE SMOOTH",
"67 202 OFFCURVE",
"154 47 OFFCURVE",
"297 -3 CURVE",
"328 58 LINE",
"217 102 OFFCURVE",
"147 216 OFFCURVE",
"147 361 CURVE SMOOTH"
);
}
);
width = 666;
}
);
note = u10838;
unicode = 10838;
},
{
glyphname = u1083C;
lastChange = "2017-01-10 21:28:56 +0000";
layers = (
{
layerId = "A5022ABA-0638-4546-9A6C-64101FA4B09F";
paths = (
{
closed = 1;
nodes = (
"541 565 LINE",
"593 612 LINE",
"495 725 LINE",
"443 679 LINE"
);
},
{
closed = 1;
nodes = (
"457 491 LINE",
"510 538 LINE",
"412 651 LINE",
"360 605 LINE"
);
},
{
closed = 1;
nodes = (
"359 387 LINE",
"178 656 LINE",
"114 612 LINE",
"282 362 LINE",
"56 43 LINE",
"115 -5 LINE",
"359 337 LINE"
);
},
{
closed = 1;
nodes = (
"776 43 LINE",
"551 362 LINE",
"714 607 LINE",
"651 656 LINE",
"473 387 LINE",
"473 337 LINE",
"717 -5 LINE"
);
}
);
width = 832;
}
);
note = u1083C;
unicode = 1083C;
},
{
glyphname = u1083F;
lastChange = "2017-01-10 21:28:56 +0000";
layers = (
{
layerId = "A5022ABA-0638-4546-9A6C-64101FA4B09F";
paths = (
{
closed = 1;
nodes = (
"67 416 OFFCURVE",
"96 378 OFFCURVE",
"154 353 CURVE SMOOTH",
"177 343 LINE SMOOTH",
"212 327 OFFCURVE",
"224 312 OFFCURVE",
"224 288 CURVE SMOOTH",
"224 276 OFFCURVE",
"221 264 OFFCURVE",
"215 251 CURVE SMOOTH",
"110 16 LINE",
"183 -10 LINE",
"290 232 LINE SMOOTH",
"301 256 OFFCURVE",
"305 277 OFFCURVE",
"305 297 CURVE SMOOTH",
"305 346 OFFCURVE",
"276 384 OFFCURVE",
"218 409 CURVE SMOOTH",
"195 419 LINE SMOOTH",
"160 435 OFFCURVE",
"149 450 OFFCURVE",
"149 474 CURVE SMOOTH",
"149 487 OFFCURVE",
"152 500 OFFCURVE",
"157 511 CURVE SMOOTH",
"243 708 LINE",
"170 734 LINE",
"83 530 LINE SMOOTH",
"72 505 OFFCURVE",
"67 483 OFFCURVE",
"67 465 CURVE SMOOTH"
);
},
{
closed = 1;
nodes = (
"312 415 OFFCURVE",
"341 378 OFFCURVE",
"399 353 CURVE SMOOTH",
"422 343 LINE SMOOTH",
"457 327 OFFCURVE",
"469 312 OFFCURVE",
"469 288 CURVE SMOOTH",
"469 276 OFFCURVE",
"466 264 OFFCURVE",
"460 251 CURVE SMOOTH",
"355 16 LINE",
"427 -10 LINE",
"534 232 LINE SMOOTH",
"545 256 OFFCURVE",
"550 278 OFFCURVE",
"550 297 CURVE SMOOTH",
"550 346 OFFCURVE",
"521 384 OFFCURVE",
"463 409 CURVE SMOOTH",
"440 419 LINE SMOOTH",
"405 435 OFFCURVE",
"394 450 OFFCURVE",
"394 474 CURVE SMOOTH",
"394 488 OFFCURVE",
"397 499 OFFCURVE",
"402 511 CURVE SMOOTH",
"488 708 LINE",
"415 734 LINE",
"327 530 LINE SMOOTH",
"317 508 OFFCURVE",
"312 486 OFFCURVE",
"312 465 CURVE SMOOTH"
);
}
);
width = 617;
}
);
note = u1083F;
unicode = 1083F;
},
